<svg width="340" height="66" viewBox="0 0 340 66" fill="none" xmlns="http://www.w3.org/2000/svg">
<path d="M26.1817 13.2271L31.6054 28.0823L31.6843 28.2983L31.8995 28.379L46.5763 33.8846L31.8995 39.3901L31.6843 39.4708L31.6054 39.6868L26.1817 54.542L20.758 39.6868L20.6791 39.4708L20.4639 39.3901L5.78713 33.8846L20.4639 28.379L20.6791 28.2983L20.758 28.0823L26.1817 13.2271Z" fill="#E7FF1A"/>
<path d="M26.1817 13.2271L31.6054 28.0823L31.6843 28.2983L31.8995 28.379L46.5763 33.8846L31.8995 39.3901L31.6843 39.4708L31.6054 39.6868L26.1817 54.542L20.758 39.6868L20.6791 39.4708L20.4639 39.3901L5.78713 33.8846L20.4639 28.379L20.6791 28.2983L20.758 28.0823L26.1817 13.2271Z" fill="black"/>
<path d="M26.1817 13.2271L31.6054 28.0823L31.6843 28.2983L31.8995 28.379L46.5763 33.8846L31.8995 39.3901L31.6843 39.4708L31.6054 39.6868L26.1817 54.542L20.758 39.6868L20.6791 39.4708L20.4639 39.3901L5.78713 33.8846L20.4639 28.379L20.6791 28.2983L20.758 28.0823L26.1817 13.2271Z" stroke="black"/>
<path d="M21.8182 11.4578L27.2419 26.3131L27.3208 26.529L27.536 26.6097L42.2128 32.1153L27.536 37.6208L27.3208 37.7015L27.2419 37.9175L21.8182 52.7728L16.3944 37.9175L16.3156 37.7015L16.1004 37.6208L1.4236 32.1153L16.1004 26.6097L16.3156 26.529L16.3944 26.3131L21.8182 11.4578Z" fill="#E7FF1A"/>
<path d="M21.8182 11.4578L27.2419 26.3131L27.3208 26.529L27.536 26.6097L42.2128 32.1153L27.536 37.6208L27.3208 37.7015L27.2419 37.9175L21.8182 52.7728L16.3944 37.9175L16.3156 37.7015L16.1004 37.6208L1.4236 32.1153L16.1004 26.6097L16.3156 26.529L16.3944 26.3131L21.8182 11.4578Z" fill="#FFE81A"/>
<path d="M21.8182 11.4578L27.2419 26.3131L27.3208 26.529L27.536 26.6097L42.2128 32.1153L27.536 37.6208L27.3208 37.7015L27.2419 37.9175L21.8182 52.7728L16.3944 37.9175L16.3156 37.7015L16.1004 37.6208L1.4236 32.1153L16.1004 26.6097L16.3156 26.529L16.3944 26.3131L21.8182 11.4578Z" stroke="black"/>
<rect x="60" y="0.999878" width="220" height="64" rx="32" fill="url(#paint0_linear_961_31569)"/>
<path d="M121.896 41.4799L120.58 42.7399C122.54 44.2519 124.052 45.6239 125.116 46.9119L127.104 44.9239C125.956 43.8039 124.584 42.6559 122.988 41.4799H125.732V26.3039H120.664C120.776 25.7159 120.86 25.1279 120.944 24.5119H126.432V21.8799H112.488V24.5119H118.004C117.948 25.1279 117.836 25.7159 117.724 26.3039H113.3V41.4799H116.408C115.12 42.6839 113.552 43.7759 111.704 44.7559L113.468 47.0799C115.596 45.8199 117.36 44.3639 118.816 42.7119L117.388 41.4799H121.896ZM122.932 38.8759H116.072V36.9999H122.932V38.8759ZM116.072 34.6199V32.9119H122.932V34.6199H116.072ZM116.072 30.5599V28.7959H122.932V30.5599H116.072ZM105.74 21.1519C104.284 24.0639 102.66 26.5839 100.924 28.7119L102.604 31.0359C103.052 30.4759 103.5 29.8879 103.948 29.2999V30.9519H110.192V28.4319C110.444 28.8799 110.724 29.3559 111.06 29.8879L112.852 27.9839C111.34 25.6319 109.716 23.3639 108.008 21.1519H105.74ZM104.62 28.3759C105.572 26.9759 106.468 25.5479 107.28 24.0359C108.036 25.0439 108.988 26.4999 110.164 28.3759H104.62ZM102.072 33.1639V35.8239H109.072C108.232 37.4479 107.448 38.8759 106.692 40.0799C106.02 39.4919 105.32 38.9039 104.564 38.3159L102.632 40.1919C105.46 42.4599 107.644 44.5599 109.184 46.4919L111.2 44.4759C110.444 43.6079 109.604 42.7399 108.68 41.8719C109.968 39.9959 111.116 37.8959 112.124 35.5719V33.1639H102.072ZM129.484 21.8519V24.5959H131.416V40.9759L129.12 41.2279L129.848 44.1119C132.816 43.6919 135.672 43.2159 138.36 42.6559V46.8279H141.216V24.5959H142.728V26.2199H143.848C144.24 30.6999 145.388 34.8159 147.292 38.6239C145.892 40.9479 144.1 42.9359 141.972 44.5879L143.96 46.8839C145.864 45.3719 147.516 43.5799 148.916 41.4799C150.12 43.3839 151.548 45.1759 153.2 46.8839L155.16 44.5879C153.312 42.8519 151.744 40.9199 150.484 38.8199C152.276 35.2639 153.48 31.0079 154.068 26.0799V23.4199H143.036V21.8519H129.484ZM146.536 26.2199H151.324C150.876 29.7199 150.036 32.8559 148.832 35.6279C147.6 32.7719 146.816 29.6359 146.536 26.2199ZM134.272 40.5559V36.7479H138.36V39.7439C137.016 40.0239 135.644 40.3039 134.272 40.5559ZM134.272 34.1159V30.6719H138.36V34.1159H134.272ZM134.272 28.0399V24.5959H138.36V28.0399H134.272ZM180.584 20.9559C177.056 22.2439 173.024 22.9159 168.516 23.0279V33.2479C168.348 38.1199 167.228 41.9279 165.128 44.6719L167.228 46.8839C169.804 43.4679 171.204 38.9319 171.372 33.2479V32.5759H175.768V47.0239H178.708V32.5759H182.656V29.7479H171.372V25.4639C175.292 25.2399 178.848 24.6239 182.04 23.5879L180.584 20.9559ZM161.264 46.6039C163.14 46.6039 164.092 45.6239 164.092 43.7199V36.2159C165.184 35.7679 166.276 35.3199 167.34 34.8159V31.8479C166.276 32.3799 165.184 32.8839 164.092 33.3319V28.6559H167.228V25.8279H164.092V21.0399H161.208V25.8279H157.568V28.6559H161.208V34.3679C159.836 34.7879 158.436 35.1519 157.008 35.4319L157.736 38.3999C158.884 38.0639 160.032 37.6999 161.208 37.3079V42.9639C161.208 43.6359 160.872 43.9999 160.256 43.9999C159.5 43.9999 158.716 43.9439 157.904 43.8319L158.576 46.6039H161.264ZM190.804 20.9559C189.544 25.2119 187.584 28.9079 184.952 32.0439L185.848 34.9559C186.772 33.9479 187.64 32.8839 188.48 31.7639V46.9679H191.336V27.1159C192.12 25.5479 192.792 23.8959 193.324 22.1599L190.804 20.9559ZM193.66 21.8519V24.3159H198.196V25.6599H193.772V31.5119H209.844V25.6599H205.532V24.3159H210.74V21.8519H193.66ZM203.012 25.6599H200.716V24.3159H203.012V25.6599ZM207.324 29.4679H205.14V27.7599H207.324V29.4679ZM203.012 29.4679H200.688V27.7599H203.012V29.4679ZM198.56 29.4679H196.264V27.7599H198.56V29.4679ZM194.668 32.3799V43.4119H197.972C196.544 43.9719 194.696 44.4199 192.4 44.8119L193.632 46.9399C196.572 46.3799 198.812 45.6519 200.38 44.7559L199.4 43.4119H204.216L203.516 44.7839C205.812 45.2879 208.052 46.0159 210.208 46.9679L211.104 44.7559C209.592 44.2239 208.052 43.7759 206.428 43.4119H209.032V32.3799H194.668ZM206.4 41.3399H197.3V40.1359H206.4V41.3399ZM197.3 38.3999V37.2519H206.4V38.3999H197.3ZM197.3 35.5439V34.3399H206.4V35.5439H197.3ZM222.052 38.3719C221.576 39.7159 220.932 40.8359 220.148 41.6759C219.056 42.7399 217.46 43.7199 215.388 44.6159L217.208 46.9679C219.56 45.7919 221.352 44.5039 222.584 43.0479C223.48 41.8719 224.208 40.3039 224.768 38.3719H230.872C230.76 40.7519 230.564 42.3199 230.228 43.0479C229.92 43.7479 229.276 44.1119 228.268 44.1119C227.036 44.1119 225.72 44.0559 224.32 43.9719L225.076 46.7159H229.668C230.788 46.6599 231.628 46.2959 232.16 45.6799C232.664 45.0079 233.056 43.8599 233.28 42.2359C233.448 40.8359 233.56 39.0439 233.672 36.9159C234.68 37.7279 235.856 38.5399 237.2 39.3239L239.104 36.9439C236.304 35.7119 234.232 34.3119 232.888 32.7439H238.152V30.1119H224.768C225.188 29.3839 225.58 28.5999 225.916 27.8159H236.612V25.2399H232.888C233.672 24.2039 234.316 23.0279 234.876 21.6839L232.44 20.7879C231.908 22.2439 231.208 23.5039 230.368 24.6239L231.46 25.2399H226.868C227.288 23.9239 227.624 22.5519 227.876 21.0959L224.964 20.7319C224.712 22.2999 224.348 23.8119 223.9 25.2399H220.456L221.828 24.6239C221.268 23.2799 220.652 22.0479 219.924 20.8999L217.404 21.7399C218.076 22.7479 218.692 23.9239 219.28 25.2399H215.388V27.8159H222.836C222.444 28.5999 221.996 29.3839 221.52 30.1119H213.848V32.7439H219.336C217.6 34.5079 215.444 35.9359 212.868 37.0279L214.492 39.4919C216.004 38.7639 217.404 37.8959 218.72 36.9159V38.3719H222.052ZM223.004 32.7439H229.836C230.452 33.7519 231.264 34.7319 232.272 35.6839H220.26C221.24 34.7879 222.164 33.8079 223.004 32.7439Z" fill="black"/>
<rect x="60" y="0.999878" width="220" height="64" rx="32" stroke="black" stroke-width="1.5"/>
<path d="M318.182 13.2271L323.606 28.0823L323.685 28.2983L323.9 28.379L338.577 33.8846L323.9 39.3901L323.685 39.4708L323.606 39.6868L318.182 54.542L312.758 39.6868L312.679 39.4708L312.464 39.3901L297.787 33.8846L312.464 28.379L312.679 28.2983L312.758 28.0823L318.182 13.2271Z" fill="#E7FF1A"/>
<path d="M318.182 13.2271L323.606 28.0823L323.685 28.2983L323.9 28.379L338.577 33.8846L323.9 39.3901L323.685 39.4708L323.606 39.6868L318.182 54.542L312.758 39.6868L312.679 39.4708L312.464 39.3901L297.787 33.8846L312.464 28.379L312.679 28.2983L312.758 28.0823L318.182 13.2271Z" fill="black"/>
<path d="M318.182 13.2271L323.606 28.0823L323.685 28.2983L323.9 28.379L338.577 33.8846L323.9 39.3901L323.685 39.4708L323.606 39.6868L318.182 54.542L312.758 39.6868L312.679 39.4708L312.464 39.3901L297.787 33.8846L312.464 28.379L312.679 28.2983L312.758 28.0823L318.182 13.2271Z" stroke="black"/>
<path d="M313.818 11.4578L319.242 26.3131L319.321 26.529L319.536 26.6097L334.213 32.1153L319.536 37.6208L319.321 37.7015L319.242 37.9175L313.818 52.7728L308.394 37.9175L308.316 37.7015L308.1 37.6208L293.424 32.1153L308.1 26.6097L308.316 26.529L308.394 26.3131L313.818 11.4578Z" fill="#E7FF1A"/>
<path d="M313.818 11.4578L319.242 26.3131L319.321 26.529L319.536 26.6097L334.213 32.1153L319.536 37.6208L319.321 37.7015L319.242 37.9175L313.818 52.7728L308.394 37.9175L308.316 37.7015L308.1 37.6208L293.424 32.1153L308.1 26.6097L308.316 26.529L308.394 26.3131L313.818 11.4578Z" fill="#FFE81A"/>
<path d="M313.818 11.4578L319.242 26.3131L319.321 26.529L319.536 26.6097L334.213 32.1153L319.536 37.6208L319.321 37.7015L319.242 37.9175L313.818 52.7728L308.394 37.9175L308.316 37.7015L308.1 37.6208L293.424 32.1153L308.1 26.6097L308.316 26.529L308.394 26.3131L313.818 11.4578Z" stroke="black"/>
<defs>
<linearGradient id="paint0_linear_961_31569" x1="170" y1="0.999878" x2="170" y2="64.9999" gradientUnits="userSpaceOnUse">
<stop stop-color="#FAC300"/>
<stop offset="1" stop-color="#FA7800"/>
</linearGradient>
</defs>
</svg>
